<svg width="359" height="300" viewBox="0 0 359 300" fill="none" xmlns="http://www.w3.org/2000/svg">
<rect x="30" width="300" height="300" rx="65" fill="black"/>
<path d="M269.241 133.589C266.109 128.744 261.74 124.973 256.136 122.273C250.53 119.576 244.045 118.225 236.683 118.225C230.638 118.225 225.032 119.217 219.868 121.199C214.701 123.182 210.224 125.908 206.432 129.377C202.641 132.846 199.863 136.95 198.107 141.685L215.746 150.275C217.395 146.31 220.004 143.062 223.577 140.528C227.147 137.996 231.243 136.728 235.859 136.728C240.804 136.728 244.76 138.024 247.728 140.61C250.696 143.2 252.179 146.421 252.179 150.275V153.186L225.637 157.544C218.603 158.646 212.779 160.517 208.163 163.16C203.548 165.804 200.111 169.082 197.86 172.99C195.606 176.901 194.48 181.332 194.48 186.289C194.48 191.467 195.743 196.01 198.272 199.918C200.799 203.829 204.397 206.83 209.07 208.921C213.74 211.012 219.208 212.06 225.473 212.06C230.419 212.06 234.896 211.4 238.909 210.078C242.919 208.756 246.546 206.774 249.789 204.131C251.104 203.059 252.337 201.892 253.498 200.639V210.078H273.94V150.275C273.939 143.997 272.374 138.437 269.241 133.589ZM249.376 184.636C247.506 188.052 244.843 190.723 241.381 192.649C237.918 194.577 233.934 195.54 229.429 195.54C225.911 195.54 222.971 194.632 220.609 192.814C218.245 190.997 217.065 188.547 217.065 185.463C217.065 182.27 218.108 179.709 220.197 177.781C222.283 175.855 225.473 174.505 229.759 173.733L252.179 169.742V173.568C252.179 177.533 251.244 181.224 249.376 184.636Z" fill="white"/>
<path d="M86 210.078H137.928C146.272 210.078 153.51 208.85 159.645 206.391L159.642 206.389L143.365 190.084C142.362 190.198 141.32 190.253 140.236 190.253H108.583V154.405H137.26C152.613 154.405 162.092 148.287 167.067 143.76C169.181 141.909 170.926 139.867 172.301 137.637C175.321 132.737 176.832 127.423 176.832 121.696C176.832 114.538 175.268 108.372 172.135 103.194C169.003 98.0183 164.523 94.0238 158.7 91.2149C152.872 88.406 145.949 87.0027 137.928 87.0027H108.583V90.5317C108.532 93.6394 108.493 96.6821 108.493 99.5883C108.493 101.876 108.519 104.083 108.583 106.167H139.081C143.698 106.167 147.379 107.434 150.127 109.965C152.872 112.5 154.249 115.914 154.249 120.209C154.249 124.502 152.872 128.001 150.127 130.699C147.379 133.399 143.698 134.747 139.081 134.747H108.583C101.265 135.509 90.0762 138.978 86.0046 152.619" fill="white"/>
<path d="M108.584 90.5317C108.533 93.6394 108.494 96.6821 108.494 99.5883C108.494 101.876 108.519 104.083 108.584 106.167V134.747C101.265 135.509 90.0766 138.978 86.005 152.619V87.0027H108.584V90.5317Z" fill="url(#paint0_linear_542_4380)"/>
<path d="M179.634 159.195C178.206 155.012 175.735 151.213 172.22 147.792C170.739 146.361 168.986 144.994 167.066 143.759C162.09 148.287 152.612 154.404 137.259 154.404H140.235C146.06 154.404 150.706 156.058 154.167 159.357C157.628 162.664 159.359 167.016 159.359 172.407C159.359 177.806 157.628 182.131 154.167 185.377C151.352 188.022 147.743 189.587 143.359 190.08L159.641 206.389C163.607 204.804 167.115 202.698 170.159 200.08C177.903 193.42 181.781 184.196 181.781 172.407C181.782 167.785 181.061 163.379 179.634 159.195Z" fill="url(#paint1_linear_542_4380)"/>
<path d="M109.563 87.0046L109.506 106.169L108.459 106.167L107.525 106.164L107.58 87L109.563 87.0046Z" fill="white"/>
<path d="M159.329 206.389L159.331 206.391C158.972 206.534 158.608 206.676 158.242 206.812H158.238L141.977 190.188C142.364 190.16 142.746 190.126 143.121 190.084L143.116 190.079C143.516 190.035 143.91 189.98 144.296 189.917H144.299L160.488 205.9C160.106 206.069 159.72 206.231 159.329 206.389Z" fill="white"/>
<defs>
<linearGradient id="paint0_linear_542_4380" x1="97.2943" y1="105.974" x2="97.2943" y2="152.282" gradientUnits="userSpaceOnUse">
<stop stop-color="white"/>
<stop offset="1" stop-color="white" stop-opacity="0"/>
</linearGradient>
<linearGradient id="paint1_linear_542_4380" x1="162.566" y1="181.719" x2="156.978" y2="145.289" gradientUnits="userSpaceOnUse">
<stop stop-color="white"/>
<stop offset="1" stop-color="white" stop-opacity="0"/>
</linearGradient>
</defs>
</svg>
